<?xml version="1.0" standalone="no"?> <!DOCTYPE svg PUBLIC "-//W3C//DTD SVG 1.0//EN" "http://www.w3.org/TR/2001/REC-SVG-20010904/DTD/svg10.dtd" > <svg xmlns="http://www.w3.org/2000/svg" width="100%" height="100%">
<defs >
<font id="MicroFLF-Italic" horiz-adv-x="493" ><font-face
    font-family="MicroFLF"
    units-per-em="1000"
    panose-1="2 0 6 3 2 0 0 9 0 4"
    ascent="874"
    descent="-212"
    alphabetic="0" />
<missing-glyph horiz-adv-x="364" d="M33 0V666H298V0H33ZM66 33H265V633H66V33Z" />
<glyph unicode=" " glyph-name="space" horiz-adv-x="387" />
<glyph unicode="!" glyph-name="exclam" horiz-adv-x="189" d="M90 167H157L250 694H183L90 167ZM78 78L64 0H131L144 78H78Z" />
<glyph unicode="&quot;" glyph-name="quotedbl" horiz-adv-x="328" d="M386 708H330L311 534H344L386 708ZM252 708H197L178 534H211L252 708Z" />
<glyph unicode="#" glyph-name="numbersign" horiz-adv-x="564" d="M392 650H338L293 547H189L165 491H270L229 398H125L101 342H205L162 242H216L259 342H382L337 238H391L436 342H532L556 398H460L500 491H597L621 547H525L569 650H515L470 547H348L392 650ZM323
491H447L406 398H283L323 491Z" />
<glyph unicode="$" glyph-name="dollar" horiz-adv-x="649" d="M361 622H392L351 392H310Q282 392 261 395T225 408T203 433T195 476Q195 559 236 590T361 622ZM406 73H367L410 320H454Q516 320 541 300T567 230Q567 195 561 166T538 117T489 85T406 73ZM286 320H338L295
73H265Q202 73 173 98T144 170Q144 177 144 183Q144 190 146 198H74Q72 184 72 172T71 151Q71 119 82 92T116 44T171 13T248 1H282L266 -89H338L354 1H387Q522 1 584 59T646 236Q646 320 600 356T459 392H423L464 622H492Q531 622 555 616T592 599T611 574T616
545Q616 535 615 525T612 504H685Q688 521 689 532T690 557Q690 587 681 612T649 656T591 684T503 694H476L488 760H416L404 694H358Q234 694 175 634T115 469Q115 399 154 360T286 320Z" />
<glyph unicode="%" glyph-name="percent" horiz-adv-x="991" d="M472 564Q472 553 468 526T454 445Q448 409 439 386T414 351T375 333T319 328H291Q236 328 215 342T193 397Q193 414 197 448T210 528Q216 559 224 579T245 611T279 627T332 632H366Q425 632 448
618T472 564ZM315 267Q360 267 393 275T450 302T489 352T512 431Q515 449 518 470T524 511T528 547T530 573Q530 627 494 660T379 693H345Q297 693 264 685T208 656T171 600T147 509Q139 465 137 435T135 381Q135 332 168 300T276 267H315ZM418 -33L757 728H707L368
-33H418ZM930 298Q930 287 926 260T912 179Q906 143 897 120T872 85T833 67T777 62H749Q694 62 673 76T651 131Q651 148 655 182T668 262Q674 293 682 313T703 345T737 361T790 366H824Q883 366 906 352T930 298ZM773 1Q818 1 851 9T908 36T947 86T970 165Q973
183 976 204T982 245T986 281T988 307Q988 361 952 394T837 427H803Q755 427 722 419T666 390T629 334T605 243Q597 199 595 169T593 115Q593 66 626 34T734 1H773Z" />
<glyph unicode="&amp;" glyph-name="ampersand" horiz-adv-x="716" d="M393 0Q465 0 510 16T585 51L630 0L680 44L637 97Q669 122 686 173T709 293H646Q640 233 627 200T592 144L369 413Q352 433 340 455T328 508Q328 543 339 566T369 603T411 622T457 628H515Q575
628 599 608T623 543Q623 532 622 520T619 493H686Q688 509 689 523T691 551Q691 621 646 657T515 694H459Q367 694 314 645T260 507Q260 478 264 462T277 431Q224 417 187 392T127 333T93 258T82 170Q82 117 97 84T142 33T215 7T314 0H393ZM150 170Q150 209 156
242T179 302T226 349T307 381L539 100Q519 87 483 77T386 67H316Q229 67 190 89T150 170Z" />
<glyph unicode="&apos;" glyph-name="quotesingle" horiz-adv-x="200" d="M252 708H197L178 534H211L252 708Z" />
<glyph unicode="(" glyph-name="parenleft" horiz-adv-x="253" d="M206 -122L218 -57Q120 -54 120 40Q120 51 121 61T124 84L208 561Q213 590 222 614T247 654T289 680T352 689L360 757Q313 757 276 748T212 717T165 656T136 561L56 114Q52 94 51 76T49 41Q49
-5 61 -36T95 -85T145 -112T206 -122Z" />
<glyph unicode=")" glyph-name="parenright" horiz-adv-x="253" d="M168 758L156 693Q254 690 254 596Q254 585 253 575T250 552L166 75Q161 46 152 22T127 -18T85 -44T22 -53L14 -121Q61 -121 98 -112T162 -81T208 -20T238 75L318 522Q322 542 323 560T325 595Q325
641 313 672T279 721T229 748T168 758Z" />
<glyph unicode="*" glyph-name="asterisk" horiz-adv-x="344" d="M369 529L283 548L372 569Q396 574 406 585T416 607Q416 619 407 628T383 638Q375 638 367 635T350 623L279 556L320 642Q326 655 326 665Q326 680 316 688T293 696Q279 696 268 686T256 654Q256
646 257 642L270 556L217 620Q208 631 199 635T181 640Q164 640 154 628T143 601Q143 590 150 580T177 566L262 548L170 524Q147 518 138 507T128 485Q128 473 136 464T159 454Q176 454 193 470L266 538L223 452Q217 440 217 430Q217 416 227 408T250 399Q264 399
275 409T287 443V452L278 539L328 474Q344 454 363 454Q380 454 391 467T403 495Q403 506 395 515T369 529Z" />
<glyph unicode="+" glyph-name="plus" horiz-adv-x="464" d="M256 326H111L99 259H243L218 114H284L310 259H454L467 326H322L348 470H281L256 326Z" />
<glyph unicode="," glyph-name="comma" horiz-adv-x="183" d="M72 78L59 0H100L91 -50Q88 -65 78 -68T47 -71L40 -106Q60 -106 75 -105T100 -98T118 -82T128 -51L150 78H72Z" />
<glyph unicode="-" glyph-name="hyphen" horiz-adv-x="428" d="M430 327H111L98 254H417L430 327Z" />
<glyph unicode="." glyph-name="period" horiz-adv-x="183" d="M72 78L59 0H137L150 78H72Z" />
<glyph unicode="/" glyph-name="slash" horiz-adv-x="306" d="M59 -89L424 728H358L-8 -89H59Z" />
<glyph unicode="0" glyph-name="zero" horiz-adv-x="656" d="M617 511Q617 496 615 475T609 422T597 350T581 253Q571 199 557 164T518 108T459 80T374 72H302Q267 72 242 77T199 96T174 131T165 187Q165 221 174 286T197 433Q207 488 221 524T258 580T311 609T384
617H470Q509 617 536 613T582 598T608 565T617 511ZM361 0Q435 0 485 11T568 52T620 129T653 253Q670 350 680 419T690 525Q690 606 639 650T483 694H400Q337 694 291 681T213 638T159 557T125 433Q109 341 101 278T92 182Q92 132 104 97T141 41T203 10T289 0H361Z"
/>
<glyph unicode="1" glyph-name="one" horiz-adv-x="656" d="M350 0H422L543 690H447L216 490L257 441L459 618L350 0Z" />
<glyph unicode="2" glyph-name="two" horiz-adv-x="656" d="M340 250L456 268Q517 278 562 295T638 342T684 413T700 516Q700 614 645 656T481 698H393Q275 698 213 652T133 504H211Q217 533 228 556T261 594T313 618T390 626H474Q558 626 592 599T626 511Q626
464 614 434T577 384T511 352T415 331L344 320Q282 311 233 296T148 255T89 193T57 103L39 0H606L619 72H124L128 96Q140 166 191 200T340 250Z" />
<glyph unicode="3" glyph-name="three" horiz-adv-x="656" d="M451 394H359L347 322H456Q523 322 549 306T576 244Q576 188 565 155T530 102T474 77T395 71H264Q205 71 178 90T151 147Q151 154 151 167T155 196H83Q80 177 80 163T79 138Q79 77 121 39T251 0H392Q460
0 509 12T589 52T634 129T649 248Q649 304 628 327T574 357Q636 365 669 403T702 522Q702 613 652 653T488 694H373Q275 694 216 653T139 518L135 493H207L211 516Q219 561 253 591T361 622H498Q530 622 554 618T595 602T620 571T629 520Q629 479 617 454T582 416T526
398T451 394Z" />
<glyph unicode="4" glyph-name="four" horiz-adv-x="656" d="M560 222L643 694H567L82 222L71 156H477L449 0H521L549 156H643L654 222H560ZM556 602L488 222H171L556 602Z" />
<glyph unicode="5" glyph-name="five" horiz-adv-x="653" d="M362 0Q429 0 475 12T552 48T600 108T627 192Q635 237 638 271T642 324Q642 397 595 438T441 480H370Q329 480 303 477T259 467T232 453T213 434L246 622H685L697 694H186L128 362H201Q217 391 251
399T351 408H441Q512 408 540 382T569 309Q569 293 567 271T557 205Q551 172 540 148T508 106T455 81T373 72H289Q219 72 188 95T157 167Q157 174 157 181Q157 189 159 197H87Q85 184 85 173T84 153Q84 74 133 37T276 0H362Z" />
<glyph unicode="6" glyph-name="six" horiz-adv-x="656" d="M475 432H368Q334 432 308 430T262 422T225 406T195 378L215 486Q222 527 235 554T270 596T325 618T406 624H476Q522 624 553 618T602 601T628 574T636 535Q636 520 633 504H702Q704 516 705 527T706
549Q706 621 654 659T492 697H411Q349 697 304 687T226 652T173 589T143 490L105 272Q97 224 96 194T94 148Q94 80 138 39T272 -3H409Q519 -3 576 39T645 149Q652 186 656 222T661 276Q661 319 648 348T610 396T551 423T475 432ZM164 162Q164 170 165 191T170 234Q175
264 186 288T219 330T272 356T352 366H450Q527 366 558 339T590 266Q590 258 588 235T579 172Q574 149 564 130T533 98T480 77T400 69H282Q219 69 192 94T164 162Z" />
<glyph unicode="7" glyph-name="seven" horiz-adv-x="656" d="M703 694H160L149 628H629L116 0H199L688 606L703 694Z" />
<glyph unicode="8" glyph-name="eight" horiz-adv-x="656" d="M557 159Q552 130 541 112T511 83T464 68T397 64H285Q252 64 229 67T192 78T170 102T163 143Q163 153 164 173T169 213Q179 268 215 291T329 314H441Q507 314 537 297T567 231Q567 222 565 208T557
159ZM614 486Q606 438 567 417T452 396H348Q282 396 251 413T220 478Q220 486 221 500T228 543Q236 588 268 610T378 632H498Q566 632 593 614T621 552Q621 542 620 527T614 486ZM272 -8H386Q447 -8 489 1T560 29T603 77T626 148Q632 183 634 203T637 238Q637 292
610 321T535 356Q590 358 632 386T685 474Q691 509 692 530T693 560Q693 623 652 662T532 701H362Q266 701 219 664T158 559Q151 526 149 508T146 467Q146 416 175 389T251 356Q187 353 149 320T100 226Q95 194 93 173T90 134Q90 65 136 29T272 -8Z" />
<glyph unicode="9" glyph-name="nine" horiz-adv-x="656" d="M309 262H416Q450 262 476 264T522 272T559 288T589 316L569 208Q561 167 549 140T514 98T459 76T378 70H308Q261 70 231 75T182 92T156 120T148 159Q148 173 151 190H82Q80 178 79 167T78 145Q78 73
130 35T292 -3H373Q435 -3 480 7T558 42T610 105T641 204L679 422Q687 470 688 500T690 546Q690 617 642 657T498 697H375Q264 697 207 653T135 531Q133 518 131 502T127 470T124 440T123 418Q123 375 136 346T174 298T233 271T309 262ZM620 532Q620 516 619 490T612
440Q608 417 597 397T565 362T512 337T432 328H334Q257 328 226 354T194 428Q194 436 195 457T201 510Q206 536 217 557T250 594T304 617T384 625H476Q517 625 545 618T589 599T613 569T620 532Z" />
<glyph unicode=":" glyph-name="colon" horiz-adv-x="183" d="M137 441L123 363H201L214 441H137ZM72 78L59 0H137L150 78H72Z" />
<glyph unicode=";" glyph-name="semicolon" horiz-adv-x="183" d="M137 441L123 363H201L214 441H137ZM72 78L59 0H100L91 -50Q88 -65 78 -68T47 -71L40 -106Q60 -106 75 -105T100 -98T118 -82T128 -51L150 78H72Z" />
<glyph unicode="&lt;" glyph-name="less" horiz-adv-x="367" d="M404 500L84 306L338 117L351 194L201 306L391 422L404 500Z" />
<glyph unicode="=" glyph-name="equal" horiz-adv-x="428" d="M416 243H97L83 171H402L416 243ZM443 404H124L112 332H431L443 404Z" />
<glyph unicode="&gt;" glyph-name="greater" horiz-adv-x="361" d="M73 117L391 306L140 500L127 422L274 306L87 194L73 117Z" />
<glyph unicode="?" glyph-name="question" horiz-adv-x="591" d="M235 78L221 0H297L311 78H235ZM322 167L333 227Q336 243 342 257T359 282T389 303T436 319Q486 331 521 343T579 374T615 417T636 480Q640 503 641 520T642 552Q642 583 633 610T601 657T542 689T450
701H353Q298 701 260 689T195 653T154 592T130 504H202Q209 537 218 561T245 601T291 626T363 634H448Q514 634 542 611T570 541Q570 531 569 518T565 489Q560 464 550 447T523 419T483 399T428 384Q392 376 364 365T314 338T280 297T260 236L247 167H322Z" />
<glyph unicode="@" glyph-name="at" horiz-adv-x="649" d="M277 393Q277 417 286 441T313 484T355 516T411 529Q449 529 467 506T486 451Q486 422 476 398T447 355T406 327T355 316Q315 316 296 339T277 393ZM148 386Q148 437 168 489T227 582T321 650T446 677Q500
677 540 662T606 620T645 558T658 482Q658 450 651 421T631 368T598 331T553 317Q533 317 526 328T518 354Q518 370 521 380T526 395L575 557H542L519 487Q512 518 490 540T418 563Q374 563 341 547T285 505T251 450T239 391Q239 344 267 313T348 281Q377 281 398
287T436 303T463 325T483 352V342Q483 314 498 298T542 281Q575 281 602 295T650 334T682 397T694 481Q694 530 678 572T631 645T554 693T449 711Q370 711 308 682T201 606T134 501T110 385Q110 336 124 293T168 218T244 168T354 149Q385 149 415 155T472 170T520
190T552 214L534 241Q523 229 504 219T461 200T411 188T359 183Q305 183 265 199T199 243T161 308T148 386Z" />
<glyph unicode="A" glyph-name="A" horiz-adv-x="671" d="M406 694L24 0H101L196 173H547L582 0H657L519 693L406 694ZM454 643L533 244H234L454 643Z" />
<glyph unicode="B" glyph-name="B" horiz-adv-x="644" d="M460 694H194L72 0H398Q457 0 502 10T579 47T627 118T643 230Q643 268 636 292T617 331T593 353T568 366Q613 377 637 415T662 532Q662 613 613 653T460 694ZM215 400L254 622H462Q531 622 559 600T587
528Q587 486 576 461T543 422T492 404T424 400H215ZM157 72L202 328H438Q505 328 537 307T569 228Q569 175 556 144T521 97T472 77T416 72H157Z" />
<glyph unicode="C" glyph-name="C" horiz-adv-x="707" d="M103 200Q103 147 116 110T159 48T236 12T352 0H401Q470 0 519 10T602 44T656 104T685 196H613Q607 163 594 140T556 101T497 78T411 71H365Q311 71 275 78T216 101T184 142T174 204Q174 231 180 281T197
391Q210 466 228 513T274 585T343 620T444 629H491Q541 629 575 623T630 604T660 574T669 533Q669 519 666 504H738Q740 516 740 527T741 549Q741 619 684 660T502 701H456Q379 701 324 688T230 641T168 553T129 414Q123 384 119 353T111 294T105 242T103 200Z"
/>
<glyph unicode="D" glyph-name="D" horiz-adv-x="711" d="M408 70H161L259 624H506Q581 624 612 594T644 493Q644 473 639 421T616 276Q607 222 592 183T553 119T493 82T408 70ZM508 694H199L77 0H402Q465 0 512 12T593 53T648 127T682 238Q703 358 710 424T717
516Q717 554 706 586T670 643T605 680T508 694Z" />
<glyph unicode="E" glyph-name="E" horiz-adv-x="573" d="M194 694L72 0H519L531 72H157L201 322H559L572 394H214L254 622H629L641 694H194Z" />
<glyph unicode="F" glyph-name="F" horiz-adv-x="578" d="M194 694L72 0H144L201 322H559L572 394H214L254 622H629L641 694H194Z" />
<glyph unicode="G" glyph-name="G" horiz-adv-x="680" d="M657 510V504H726Q727 511 727 516Q727 521 727 525Q727 564 716 595T680 650T619 685T528 698H414Q344 698 296 684T214 638T161 555T128 432Q111 335 105 275T99 184Q99 86 148 43T304 0H402Q471 0 520
12T603 55T660 140T697 277Q699 291 701 304T706 329H422L410 257H621Q609 199 592 163T549 107T491 79T415 72H316Q275 72 247 77T202 97T176 135T168 196Q168 211 170 231T175 279T185 344T200 432Q210 489 225 526T263 586T319 617T401 626H514Q590 626 623
600T657 510Z" />
<glyph unicode="H" glyph-name="H" horiz-adv-x="658" d="M197 694L74 0H147L203 322H576L519 0H591L713 694H641L589 394H217L269 694H197Z" />
<glyph unicode="I" glyph-name="I" horiz-adv-x="227" d="M79 0H151L273 694H201L79 0Z" />
<glyph unicode="J" glyph-name="J" horiz-adv-x="578" d="M165 232H93L85 188Q83 177 82 167T81 147Q81 77 127 39T248 0H316Q414 0 475 46T556 202L642 694H570L485 212Q471 134 428 102T325 70H259Q210 70 183 89T155 154Q155 160 155 172T158 197L165 232Z" />
<glyph unicode="K" glyph-name="K" horiz-adv-x="711" d="M197 694L74 0H147L207 342H286L566 0H662L348 377L712 694H619L296 407H219L269 694H197Z" />
<glyph unicode="L" glyph-name="L" horiz-adv-x="578" d="M199 694L77 0H524L537 72H161L271 694H199Z" />
<glyph unicode="M" glyph-name="M" horiz-adv-x="862" d="M187 694L64 0H137L249 639L412 0H462L848 639L736 0H808L930 694H805L452 102L303 694H187Z" />
<glyph unicode="N" glyph-name="N" horiz-adv-x="738" d="M193 694L71 0H143L256 639L569 0H673L796 694H723L613 72L312 694H193Z" />
<glyph unicode="O" glyph-name="O" horiz-adv-x="698" d="M401 626H514Q586 626 620 597T654 504Q654 484 649 427T624 277Q610 213 594 173T553 111T496 80T415 72H312Q273 72 246 78T203 100T179 139T172 200Q172 213 173 232T177 278T185 343T200 432Q210 489
225 526T263 586T319 617T401 626ZM304 0H402Q471 0 520 12T603 55T660 140T697 277Q714 377 719 432T725 510Q725 554 714 589T678 648T613 685T516 698H414Q344 698 296 684T214 638T161 555T128 432Q111 336 107 279T103 194Q103 91 150 46T304 0Z" />
<glyph unicode="P" glyph-name="P" horiz-adv-x="608" d="M480 694H188L66 0H143L196 298H428Q476 298 513 306T577 333T622 385T648 465Q653 494 654 517T656 550Q656 616 612 655T480 694ZM577 472Q567 417 534 393T438 368H208L253 624H475Q533 624 559 604T585
539Q585 529 583 511T577 472Z" />
<glyph unicode="Q" glyph-name="Q" horiz-adv-x="702" d="M402 0Q462 0 506 8T582 39L636 0L686 60L637 95Q676 156 697 277Q714 377 719 432T725 510Q725 554 714 589T678 648T613 685T516 698H414Q344 698 296 684T214 638T161 555T128 432Q111 336 107 279T103
194Q103 91 150 46T304 0H402ZM353 202L515 86Q477 72 415 72H312Q273 72 246 78T203 100T179 139T172 200Q172 213 173 232T177 278T185 343T200 432Q210 489 225 526T263 586T319 617T401 626H514Q586 626 620 597T654 504Q654 484 649 427T624 277Q605 183 576
139L402 262L353 202Z" />
<glyph unicode="R" glyph-name="R" horiz-adv-x="622" d="M215 400L254 624H498Q551 624 573 603T596 541Q596 498 588 471T563 428T522 406T467 400H215ZM502 0H574L617 244Q619 258 619 269T620 287Q620 322 605 339T564 361Q619 374 644 423T669 549Q669 612
629 653T502 694H194L72 0H144L202 330H476Q514 330 530 314T547 268Q547 263 547 257T545 245L502 0Z" />
<glyph unicode="S" glyph-name="S" horiz-adv-x="622" d="M370 694Q313 694 272 685T203 654T157 600T132 519Q127 495 127 476Q127 458 127 449Q127 386 168 357T290 325L435 320Q502 318 528 302T554 244Q554 234 553 221T546 184Q541 155 532 134T505 100T455
79T376 72H264Q207 72 177 90T147 153Q147 160 147 165T150 179L153 197H81L77 177Q75 165 75 155T74 136Q74 107 83 83T114 40T169 11T252 0H364Q428 0 472 10T546 39T592 88T615 158Q623 198 624 221T626 255Q626 285 617 309T585 352T528 380T440 392L298 397Q241
399 220 416T198 466Q198 472 199 487T205 525Q209 549 218 567T244 597T287 616T351 622H485Q544 622 572 604T600 537Q600 520 597 498H669Q672 515 673 531T675 558Q675 587 665 612T632 655T571 683T478 694H370Z" />
<glyph unicode="T" glyph-name="T" horiz-adv-x="631" d="M724 694H153L141 624H391L281 0H353L463 624H712L724 694Z" />
<glyph unicode="U" glyph-name="U" horiz-adv-x="658" d="M257 694H185L104 233Q100 210 99 191T98 163Q98 88 144 44T288 0H388Q450 0 493 11T565 47T612 112T640 213L724 694H652L567 210Q560 172 549 145T519 102T471 78T400 70H286Q226 70 198 95T170 165Q170
175 171 193T176 235L257 694Z" />
<glyph unicode="V" glyph-name="V" horiz-adv-x="618" d="M223 694H140L270 0H354L729 694H646L328 87L223 694Z" />
<glyph unicode="W" glyph-name="W" horiz-adv-x="1040" d="M327 0L627 597L716 0H800L1151 694H1074L771 91L684 694H602L301 91L214 694H140L246 0H327Z" />
<glyph unicode="X" glyph-name="X" horiz-adv-x="671" d="M268 694H189L348 372L32 0H119L400 333L563 0H646L469 367L731 694H644L411 400L268 694Z" />
<glyph unicode="Y" glyph-name="Y" horiz-adv-x="564" d="M216 694H140L302 323L246 0H323L380 323L673 694H594L350 386L216 694Z" />
<glyph unicode="Z" glyph-name="Z" horiz-adv-x="599" d="M682 694H169L157 622H570L57 56L47 0H560L572 72H162L672 639L682 694Z" />
<glyph unicode="[" glyph-name="bracketleft" horiz-adv-x="253" d="M332 723L339 761H199L44 -111L188 -112L194 -76L118 -74L259 723H332Z" />
<glyph unicode="\" glyph-name="backslash" horiz-adv-x="306" d="M290 -89L211 728H142L221 -89H290Z" />
<glyph unicode="]" glyph-name="bracketright" horiz-adv-x="253" d="M173 -111L328 761H188L181 723H254L113 -74L37 -76L30 -112L173 -111Z" />
<glyph unicode="^" glyph-name="asciicircum" horiz-adv-x="489" d="M342 641L156 321H188L352 559L460 321H489L382 641H342Z" />
<glyph unicode="_" glyph-name="underscore" horiz-adv-x="389" d="M405 -25H1L-6 -64H398L405 -25Z" />
<glyph unicode="`" glyph-name="grave" horiz-adv-x="267" d="M196 562L227 588L93 721L46 674L196 562Z" />
<glyph unicode="a" glyph-name="a" horiz-adv-x="536" d="M253 302Q172 302 129 267T76 178Q71 152 71 136T70 112Q70 60 103 30T205 0H280Q315 0 338 4T377 15T399 28T411 42L404 0H475L536 340Q538 354 538 365Q538 376 538 383Q538 405 530 425T505 460T462
485T400 494H283Q211 494 172 463T122 374L121 366H193L194 374Q200 406 222 420T290 434H380Q425 434 446 419T467 372Q467 367 467 359Q467 352 464 335L449 260Q442 269 434 276T413 290T380 299T330 302H253ZM137 125Q137 161 146 183T170 218T205 236T249
241H331Q388 241 410 225T432 177Q432 128 404 95T308 61H231Q180 61 159 76T137 125Z" />
<glyph unicode="b" glyph-name="b" horiz-adv-x="573" d="M140 54Q144 43 152 33T174 16T209 4T261 -1H330Q391 -1 431 13T497 52T536 112T559 190Q570 239 574 279T578 339Q578 412 537 454T415 496H349Q287 496 257 482T208 441L252 694H180L58 0H130L140 54ZM162
168Q162 174 162 181T164 200T169 232T178 282Q184 317 195 345T225 393T274 423T345 434H393Q457 434 483 409T510 324Q510 297 506 266T493 197Q478 122 440 91T333 60H281Q221 60 192 86T162 168Z" />
<glyph unicode="c" glyph-name="c" horiz-adv-x="547" d="M452 164Q446 134 437 114T412 82T372 65T309 60H253Q209 60 183 78T156 145Q156 160 157 174T160 208T167 251T178 310Q185 345 193 369T216 407T252 428T304 434H385Q442 434 463 418T485 369Q485 359
484 348T480 321H547Q550 338 551 352T552 376Q552 438 509 467T387 496H315Q266 496 232 486T174 453T136 393T111 302Q105 267 102 244T96 203T93 172T92 144Q92 77 129 38T240 -1H313Q368 -1 403 9T461 39T496 87T515 149L524 191H457L452 164Z" />
<glyph unicode="d" glyph-name="d" horiz-adv-x="573" d="M252 -1H310Q347 -1 371 2T412 11T440 27T461 50L452 0H524L646 694H574L529 436Q524 447 516 457T492 476T455 490T399 496H320Q228 496 177 445T107 309Q94 247 91 209T88 157Q88 84 127 42T252 -1ZM509
335Q509 323 504 289T489 199Q477 131 436 96T323 60H271Q214 60 187 83T159 164Q159 175 161 210T175 296Q192 364 228 399T333 434H391Q458 434 483 408T509 335Z" />
<glyph unicode="e" glyph-name="e" horiz-adv-x="547" d="M238 -1H302Q350 -1 386 6T448 29T490 71T513 136L517 157H450L447 142Q440 101 411 81T315 60H251Q200 60 177 78T154 139Q154 157 157 180T165 232H530Q540 287 544 318T548 367Q548 428 509 462T389
496H325Q274 496 238 486T177 453T137 394T112 306Q101 243 96 200T91 131Q91 67 128 33T238 -1ZM482 362Q482 336 474 293H176Q183 334 192 361T215 404T250 427T306 434H381Q439 434 460 417T482 362Z" />
<glyph unicode="f" glyph-name="f" horiz-adv-x="351" d="M397 494H251L261 548Q268 588 286 608T345 628H420L431 694H352Q279 694 241 660T191 559L179 494H118L106 428H167L92 0H164L239 428H385L397 494Z" />
<glyph unicode="g" glyph-name="g" horiz-adv-x="582" d="M336 494Q229 494 176 448T104 298Q95 252 91 215T87 162Q87 86 126 43T258 -1H322Q355 -1 377 2T415 12T441 27T460 47L448 -24Q438 -83 404 -116T299 -150H225Q175 -150 154 -136T132 -95Q132 -91 132
-87Q132 -84 133 -79H64Q62 -87 62 -94Q62 -102 62 -110Q62 -153 98 -182T221 -211H288Q343 -211 383 -200T451 -166T495 -107T520 -24L611 494H539L528 431Q524 443 517 454T496 475T460 489T406 494H336ZM509 336Q509 322 505 290T489 197Q483 165 472 140T442
97T393 70T321 60H275Q212 60 185 81T158 158Q158 185 161 217T174 292Q183 331 195 358T226 402T274 426T341 434H389Q457 434 483 409T509 336Z" />
<glyph unicode="h" glyph-name="h" horiz-adv-x="587" d="M406 494H369Q298 494 263 478T212 440L255 694H183L61 0H136L189 303Q202 373 242 404T357 436H396Q460 436 487 415T514 351Q514 342 514 331T510 302L457 0H529L583 303Q586 320 586 335T587 361Q587
390 577 414T544 456T488 484T406 494Z" />
<glyph unicode="i" glyph-name="i" horiz-adv-x="218" d="M234 494H162L76 0H148L234 494ZM270 694H198L186 622H258L270 694Z" />
<glyph unicode="j" glyph-name="j" horiz-adv-x="244" d="M178 494L80 -66Q72 -108 53 -127T-4 -146L-17 -212Q61 -212 99 -181T149 -83L250 494H178ZM286 694H213L201 622H273L286 694Z" />
<glyph unicode="k" glyph-name="k" horiz-adv-x="538" d="M190 694L68 0H140L186 261H238L414 0H495L295 296L522 494H434L249 333H199L262 694H190Z" />
<glyph unicode="l" glyph-name="l" horiz-adv-x="227" d="M270 694H198L76 0H148L270 694Z" />
<glyph unicode="m" glyph-name="m" horiz-adv-x="929" d="M781 494H735Q698 494 670 488T621 472T585 448T559 419Q553 435 542 449T513 473T469 488T406 494H358Q301 494 265 479T208 432L219 494H147L60 0H132L187 314Q191 336 202 357T232 395T280 422T346
433H395Q425 433 444 425T476 404T492 375T497 344Q497 331 492 308L438 0H510L567 322Q570 338 579 357T607 394T654 422T723 433H773Q828 433 850 410T873 351Q873 346 873 334T870 310L816 0H888L942 305Q944 319 945 334T946 358Q946 386 937 410T907 453T856
483T781 494Z" />
<glyph unicode="n" glyph-name="n" horiz-adv-x="582" d="M406 494H369Q298 494 263 478T212 440L222 493H150L61 0H133L186 303Q199 373 240 404T357 436H396Q460 436 487 415T514 351Q514 342 514 331T510 302L457 0H529L583 303Q586 320 586 335T587 361Q587
390 577 414T544 456T488 484T406 494Z" />
<glyph unicode="o" glyph-name="o" horiz-adv-x="516" d="M378 496H303Q250 496 215 485T156 451T120 392T97 309Q86 245 82 199T78 127Q78 102 85 79T110 38T156 10T227 -1H304Q353 -1 388 10T446 44T484 100T506 176Q519 248 523 294T528 362Q528 496 378 496ZM300
61H240Q186 61 164 82T141 145Q141 160 142 176T146 211T153 256T164 316Q170 349 179 371T205 408T246 428T306 434H366Q420 434 442 414T465 355Q465 323 442 193Q435 154 425 129T398 88T357 67T300 61Z" />
<glyph unicode="p" glyph-name="p" horiz-adv-x="573" d="M140 54Q144 43 152 33T174 16T209 4T261 -1H330Q388 -1 427 11T491 47T531 102T555 174Q569 234 573 276T578 339Q578 412 537 454T415 496H349Q287 496 257 482T208 441L218 494H146L22 -200H94L140
54ZM162 168Q162 174 162 181T164 200T169 232T178 282Q184 317 195 345T225 393T274 423T345 434H393Q457 434 483 409T510 324Q510 308 507 271T489 181Q473 118 437 89T333 60H281Q221 60 192 86T162 168Z" />
<glyph unicode="q" glyph-name="q" horiz-adv-x="573" d="M254 -1H312Q349 -1 373 2T414 11T442 27T463 50L418 -199H490L613 494H541L531 436Q526 447 518 457T494 476T457 490T401 496H322Q229 496 175 444T105 299Q95 245 93 208T90 157Q90 84 129 42T254 -1ZM511
335Q511 323 506 289T491 199Q479 131 438 96T325 60H273Q216 60 189 83T161 164Q161 175 164 210T176 296Q188 365 227 399T335 434H393Q460 434 485 408T511 335Z" />
<glyph unicode="r" glyph-name="r" horiz-adv-x="547" d="M491 293H563Q569 326 569 358Q569 383 562 407T535 451T482 482T397 494H341Q283 494 250 475T199 434L209 494H138L51 0H123L171 275Q184 347 229 391T350 436H387Q419 436 440 430T474 411T492 383T497
347Q497 321 491 293Z" />
<glyph unicode="s" glyph-name="s" horiz-adv-x="542" d="M139 157H77Q75 147 75 140T74 123Q74 72 110 36T220 -1H328Q419 -1 462 29T516 114Q522 151 522 179Q522 225 493 251T398 280L246 284Q207 285 191 296T174 334Q174 339 174 347Q174 355 178 375Q181
388 186 399T203 418T232 430T278 434H388Q448 434 471 417T494 370Q494 365 494 359T491 339H553Q556 355 556 364T557 382Q557 406 548 427T520 463T471 487T399 496H289Q210 496 169 468T118 385Q113 359 112 341T111 316Q111 271 142 248T220 223L386 219Q427
218 444 205T461 164Q461 159 460 152T457 129Q449 88 422 74T347 60H230Q182 60 160 78T137 132Q137 137 137 143Q137 149 139 157Z" />
<glyph unicode="t" glyph-name="t" horiz-adv-x="478" d="M193 122Q193 127 193 135T196 157L244 428H481L493 494H256L273 589H201L184 494H123L111 428H172L127 170Q122 146 121 134T120 111Q120 60 151 30T234 0H309Q344 0 370 7T414 30T444 73T463 138H391Q385
102 368 82T309 62H259Q226 62 210 76T193 122Z" />
<glyph unicode="u" glyph-name="u" horiz-adv-x="591" d="M268 -1H313Q347 -1 371 3T413 14T442 30T463 49L454 0H524L611 494H539L485 188Q474 126 433 96T322 66H279Q220 66 195 85T169 148Q169 157 170 167T174 194L227 494H155L104 204Q102 191 100 175T98
145Q98 77 139 38T268 -1Z" />
<glyph unicode="v" glyph-name="v" horiz-adv-x="484" d="M175 494H108L202 0H291L559 494H486L255 60L175 494Z" />
<glyph unicode="w" glyph-name="w" horiz-adv-x="787" d="M259 0L472 424L537 0H604L862 494H799L582 78L526 494H440L236 78L166 494H104L189 0H259Z" />
<glyph unicode="x" glyph-name="x" horiz-adv-x="516" d="M216 494H141L269 271L19 0H101L303 219L427 0H503L349 271L554 494H472L314 323L216 494Z" />
<glyph unicode="y" glyph-name="y" horiz-adv-x="490" d="M184 494H108L206 -1H212Q198 -27 175 -53T121 -101T55 -135T-15 -149L-26 -211Q69 -211 147 -163T290 2L559 494H485L263 93L184 494Z" />
<glyph unicode="z" glyph-name="z" horiz-adv-x="529" d="M563 494H151L141 433H455L70 56L60 0H477L488 61H162L554 439L563 494Z" />
<glyph unicode="{" glyph-name="braceleft" horiz-adv-x="283" d="M224 406L258 600Q267 651 292 674T370 697L380 752Q297 752 257 714T204 607L169 406Q162 371 140 348T85 308Q105 297 120 275T135 225Q135 221 135 213T132 196L100 24Q98 12 97 -1T96 -23Q96
-76 129 -104T224 -132L233 -78Q191 -78 172 -62T152 -12Q152 3 157 28L186 196Q188 207 189 215T191 231Q191 258 177 278T152 308Q163 314 174 320T194 338T211 365T224 406Z" />
<glyph unicode="|" glyph-name="bar" horiz-adv-x="167" d="M91 -133L244 739H189L36 -133H91Z" />
<glyph unicode="}" glyph-name="braceright" horiz-adv-x="283" d="M250 632Q250 618 247 600L215 417Q212 400 211 392T210 377Q210 350 223 333T249 308Q227 299 207 277T178 210L144 16Q136 -32 109 -55T32 -78L23 -132Q95 -132 139 -102T196 1L233 210Q239
243 262 268T316 308Q296 320 281 340T266 388Q266 393 267 398T270 417L303 607Q305 618 306 627T307 646Q307 694 278 723T179 752L169 697Q212 697 231 682T250 632Z" />
<glyph unicode="~" glyph-name="asciitilde" horiz-adv-x="413" d="M68 340H126Q131 361 143 375T179 390Q201 390 210 383T231 366Q240 357 258 348T308 338Q334 338 353 346T387 369T409 401T422 440H369Q365 423 353 407T312 390Q289 390 278 397T256 414Q245
423 231 431T185 440Q137 440 108 412T68 340Z" />
<glyph unicode="&#xa1;" glyph-name="exclamdown" horiz-adv-x="256" d="M197 383H130L37 -144H104L197 383ZM209 472L223 550H156L143 472H209Z" />
<glyph unicode="&#xa2;" glyph-name="cent" horiz-adv-x="551" d="M328 24L338 80H351Q437 80 479 117T533 224L542 271H476L470 235Q453 141 359 141H349L415 516H425Q502 516 502 448Q502 440 502 430Q502 421 499 401H565Q569 424 569 436T570 458Q570 506
538 541T439 576H426L437 640H366L355 576H324Q246 576 197 534T134 409Q118 320 112 273T106 213Q106 145 144 113T243 80H267L257 24H328ZM199 399Q205 429 213 451T236 488T273 509T327 516H344L278 141H261Q219 141 196 158T172 221Q172 230 178 272T199 399Z"
/>
<glyph unicode="&#xa3;" glyph-name="sterling" horiz-adv-x="569" d="M374 629H456Q504 629 533 611T563 552Q563 543 562 538H633Q634 543 634 548Q634 554 634 559Q634 592 622 617T589 659T539 685T477 694H390Q334 694 294 679T227 637T187 576T174 504Q174
470 178 452T189 419Q197 402 205 381T215 332H112L99 262H216Q210 228 199 204T169 158T123 117T56 72L43 0H523L535 70H154Q212 101 243 151T286 262H493L506 332H285Q283 358 277 384T263 426Q255 443 251 461T246 508Q246 534 255 556T281 595T321 620T374
629Z" />
<glyph unicode="&#xa5;" glyph-name="yen" horiz-adv-x="564" d="M218 694H140L301 323H190L180 268H291L287 241H176L166 186H277L244 0H323L356 186H467L477 241H366L370 268H481L491 323H380L673 694H596L352 386L218 694Z" />
<glyph unicode="&#xa7;" glyph-name="section" horiz-adv-x="598" d="M563 368Q563 354 561 340T554 305Q551 288 543 273T520 246T482 229T425 222H205Q167 222 150 237T133 284Q133 301 135 316T141 348Q148 386 169 410T240 434H487Q526 434 544 417T563 368ZM528
127Q528 141 521 155T501 175Q595 192 612 287Q620 330 621 350T622 382Q622 436 589 465T485 495H288Q257 495 241 507T225 549Q225 554 225 561T229 586Q234 615 256 632T323 650H464Q511 650 530 634T549 589Q549 583 548 576T544 554H606Q609 571 610 580T611
598Q611 647 581 679T477 711H339Q265 711 223 682T171 602Q166 570 164 552T162 526Q162 513 171 498T192 475Q148 467 119 436T80 350Q75 321 74 302T72 270Q72 221 103 191T204 161H393Q429 161 447 145T466 108Q466 92 465 83T461 65Q456 36 431 19T362 2H207Q172
2 155 19T138 66Q138 71 139 78T142 99H81Q78 84 77 76T76 60Q76 9 108 -25T203 -59H345Q426 -59 468 -27T521 62Q526 88 527 102T528 127Z" />
<glyph unicode="&#xa8;" glyph-name="dieresis" horiz-adv-x="382" d="M154 694H82L70 622H142L154 694ZM337 694H264L252 622H324L337 694Z" />
<glyph unicode="&#xa9;" glyph-name="copyright" horiz-adv-x="640" d="M245 394Q245 413 252 431T272 463T307 485T355 494Q387 494 410 482T450 452V476Q435 490 413 502T355 514Q322 514 298 504T258 477T233 438T225 394Q225 371 233 350T257 311T298 284T355
273Q393 273 415 285T450 310V341Q436 323 415 308T355 293Q328 293 307 301T273 324T252 357T245 394ZM618 389Q618 443 598 491T541 575T457 631T355 652Q301 652 253 632T169 575T113 491T92 389Q92 335 112 287T169 203T253 147T355 126Q409 126 457 146T541
203T597 287T618 389ZM113 390Q113 440 132 484T184 562T261 614T356 633Q406 633 450 614T528 562T580 485T599 390Q599 340 580 296T528 218T451 166T356 147Q306 147 262 166T184 218T132 295T113 390Z" />
<glyph unicode="&#xaa;" glyph-name="ordfeminine" horiz-adv-x="311" d="M280 338H66L61 308H277L280 338ZM168 537Q127 537 106 519T79 475Q77 461 77 453T76 441Q76 415 93 400T144 385H182Q217 385 230 392T247 406L244 385H280L310 556Q312 564 312 569T311
578Q311 600 295 617T242 634H183Q147 634 127 619T102 574V569H138V574Q141 590 152 597T187 604H232Q275 604 275 573Q275 570 275 566T274 554L266 516Q259 525 248 531T207 537H168ZM110 448Q110 484 126 495T166 506H207Q236 506 247 498T258 474Q258 449
244 433T196 416H157Q131 416 121 423T110 448Z" />
<glyph unicode="&#xab;" glyph-name="guillemotleft" horiz-adv-x="544" d="M252 78L289 113L153 272L359 447L324 483L82 278L252 78ZM434 78L471 113L336 272L541 447L507 483L264 278L434 78Z" />
<glyph unicode="&#xac;" glyph-name="logicalnot" horiz-adv-x="453" d="M449 376H127L121 349H443L449 376ZM281 404H313L368 714H325L221 624L239 602L330 682L281 404ZM202 -3H254Q309 -3 332 13T362 67Q364 83 365 91T367 107Q367 132 355 145T321 160Q346
162 364 174T388 214Q391 229 391 238T392 252Q392 281 373 298T319 316H243Q199 316 178 299T151 252Q148 237 147 229T146 210Q146 187 159 175T193 160Q134 158 125 102Q123 88 122 79T121 61Q121 -3 202 -3ZM356 219Q352 197 335 188T283 178H237Q208 178 194
186T179 215Q179 222 183 245Q186 265 200 275T250 285H304Q335 285 347 277T359 249Q359 244 359 237T356 219ZM331 72Q326 46 310 38T259 29H208Q179 29 166 35T153 65Q153 70 153 78T156 96Q161 121 177 131T228 142H278Q308 142 321 134T335 104Q335 100 334
94T331 72Z" />
<glyph unicode="&#xae;" glyph-name="registered" horiz-adv-x="441" d="M334 623Q334 642 323 654T289 666H219L196 484H210L221 568H252L299 484H317L269 568H277Q308 568 321 585T334 623ZM320 622Q320 610 312 596T279 582H222L231 652H288Q305 652 312 644T320
622ZM421 591Q421 620 411 645T381 689T336 718T279 729Q247 729 216 717T159 682T119 626T103 551Q103 522 113 497T143 453T188 424T246 413Q282 413 314 426T370 464T407 520T421 591ZM118 553Q118 590 132 619T169 670T220 702T277 714Q305 714 329 705T370
678T396 639T406 589Q406 554 393 525T358 474T308 440T249 428Q220 428 196 437T154 464T128 503T118 553Z" />
<glyph unicode="&#xaf;" glyph-name="overscore" horiz-adv-x="333" d="M308 634H36L30 596H302L308 634Z" />
<glyph unicode="&#xb0;" glyph-name="degree" horiz-adv-x="272" d="M261 666H228Q196 666 180 650T159 609Q157 595 156 582T154 562Q154 542 167 530T209 517H235Q271 517 288 531T310 574Q312 587 313 601T315 621Q315 639 303 652T261 666ZM239 539H213Q176
539 176 568Q176 573 177 584T181 606Q185 628 198 636T228 644H258Q293 644 293 617Q293 612 292 600T288 575Q285 556 272 548T239 539Z" />
<glyph unicode="&#xb1;" glyph-name="plusminus" horiz-adv-x="431" d="M430 180H111L98 108H417L430 180ZM278 419H133L121 352H266L240 208H307L332 352H477L489 419H344L370 563H303L278 419Z" />
<glyph unicode="&#xb4;" glyph-name="acute" horiz-adv-x="302" d="M264 672L223 719L46 583L68 558L264 672Z" />
<glyph unicode="&#xb5;" glyph-name="mu" horiz-adv-x="453" d="M449 376H127L121 349H443L449 376ZM212 112L264 121Q319 129 346 153T374 232Q374 277 350 295T275 314H236Q182 314 155 293T119 227H154Q159 253 176 267T234 282H272Q310 282 325 270T341 230Q341
188 319 173T246 149L214 144Q158 136 126 115T85 46L77 0H332L337 32H115L117 43Q122 75 145 90T212 112ZM281 404H313L368 714H325L221 624L239 602L330 682L281 404Z" />
<glyph unicode="&#xb6;" glyph-name="paragraph" horiz-adv-x="618" d="M314 -76H392L528 694H411Q342 694 292 676T210 625T163 551T148 461Q148 389 195 344T339 298H380L314 -76ZM461 -76H533L669 694H597L461 -76Z" />
<glyph unicode="&#xb7;" glyph-name="middot" horiz-adv-x="196" d="M72 402H150L137 324H59L72 402Z" />
<glyph unicode="&#xb8;" glyph-name="cedilla" horiz-adv-x="238" d="M179 -67L191 -1H126L118 -41Q115 -57 110 -66T96 -79T73 -85T39 -86L29 -147Q68 -147 94 -145T138 -135T165 -110T179 -67Z" />
<glyph unicode="&#xba;" glyph-name="ordmasculine" horiz-adv-x="311" d="M274 338H60L56 308H271L274 338ZM227 633H190Q164 633 146 628T117 610T98 581T87 539Q82 507 80 484T78 448Q78 423 94 404T152 385H190Q240 385 261 407T291 473Q297 509 299 532T302
566Q302 633 227 633ZM188 415H158Q132 415 121 426T109 457Q109 473 112 490T121 543Q126 576 141 589T191 602H221Q248 602 259 592T270 562Q270 554 267 534T259 481Q252 442 237 429T188 415Z" />
<glyph unicode="&#xbb;" glyph-name="guillemotright" horiz-adv-x="544" d="M156 451L293 284L91 117L123 78L364 278L196 483L156 451ZM338 451L476 284L273 117L306 78L547 278L378 483L338 451Z" />
<glyph unicode="&#xbf;" glyph-name="questiondown" horiz-adv-x="587" d="M456 466L470 544H394L380 466H456ZM369 377L358 317Q352 285 331 262T255 225Q205 213 170 201T112 170T76 127T55 64Q51 41 50 24T49 -8Q49 -39 58 -66T90 -113T149 -145T241 -157H338Q393
-157 431 -145T496 -109T537 -48T561 40H489Q482 7 473 -17T446 -57T400 -82T328 -90H243Q177 -90 149 -67T121 3Q121 13 122 26T126 55Q130 80 140 97T168 125T208 145T263 160Q299 168 327 179T377 206T411 247T431 308L444 377H369Z" />
<glyph unicode="&#xc0;" glyph-name="Agrave" horiz-adv-x="671" d="M449 730L474 750L368 857L329 819L449 730ZM406 694L24 0H101L196 173H547L582 0H657L519 693L406 694ZM454 643L533 244H234L454 643Z" />
<glyph unicode="&#xc1;" glyph-name="Aacute" horiz-adv-x="671" d="M586 823L547 861L440 754L466 734L586 823ZM406 694L24 0H101L196 173H547L582 0H657L519 693L406 694ZM454 643L533 244H234L454 643Z" />
<glyph unicode="&#xc2;" glyph-name="Acircumflex" horiz-adv-x="671" d="M467 874L312 749H341L478 817L582 749H612L502 874H467ZM406 694L24 0H101L196 173H547L582 0H657L519 693L406 694ZM454 643L533 244H234L454 643Z" />
<glyph unicode="&#xc3;" glyph-name="Atilde" horiz-adv-x="671" d="M300 734H352Q357 753 367 765T400 778Q420 778 428 773T446 757Q454 749 470 741T516 732Q563 732 589 757T623 824H571Q567 809 556 794T519 778Q499 778 489 784T469 800Q459 808 446 816T405
824Q362 824 336 798T300 734ZM406 694L24 0H101L196 173H547L582 0H657L519 693L406 694ZM454 643L533 244H234L454 643Z" />
<glyph unicode="&#xc4;" glyph-name="Adieresis" horiz-adv-x="671" d="M422 818H350L338 746H410L422 818ZM604 818H532L520 746H592L604 818ZM406 694L24 0H101L196 173H547L582 0H657L519 693L406 694ZM454 643L533 244H234L454 643Z" />
<glyph unicode="&#xc5;" glyph-name="Aring" horiz-adv-x="671" d="M499 843H470Q441 843 426 829T408 791Q406 779 405 767T403 749Q403 732 415 721T452 709H476Q508 709 523 722T543 760Q545 771 546 784T548 802Q548 819 537 831T499 843ZM480 728H456Q423
728 423 755Q423 760 424 769T427 789Q431 809 443 816T470 823H497Q528 823 528 799Q528 794 527 783T524 761Q521 744 509 736T480 728ZM406 694L24 0H101L196 173H547L582 0H657L519 693L406 694ZM454 643L533 244H234L454 643Z" />
<glyph unicode="&#xc6;" glyph-name="AE" horiz-adv-x="882" d="M93 0L314 322H459L402 0H828L840 72H487L531 322H868L881 394H544L584 622H938L950 694H500L16 0H93ZM472 394H370L510 611L472 394Z" />
<glyph unicode="&#xc7;" glyph-name="Ccedilla" horiz-adv-x="707" d="M103 200Q103 149 115 112T155 51T227 14T336 0L326 -61Q322 -84 302 -90T239 -97L227 -164Q267 -164 297 -162T348 -150T383 -121T402 -67L414 0Q479 1 526 12T605 46T657 106T685 196H613Q607
163 594 140T556 101T497 78T411 71H365Q311 71 275 78T216 101T184 142T174 204Q174 231 180 281T197 391Q210 466 228 513T274 585T343 620T444 629H491Q541 629 575 623T630 604T660 574T669 533Q669 519 666 504H738Q740 516 740 527T741 549Q741 619 684 660T502
701H456Q379 701 324 688T230 641T168 553T129 414Q123 384 119 353T111 294T105 242T103 200Z" />
<glyph unicode="&#xc8;" glyph-name="Egrave" horiz-adv-x="573" d="M416 730L441 750L334 857L296 819L416 730ZM194 694L72 0H519L531 72H157L201 322H559L572 394H214L254 622H629L641 694H194Z" />
<glyph unicode="&#xc9;" glyph-name="Eacute" horiz-adv-x="573" d="M539 823L500 861L393 754L419 734L539 823ZM194 694L72 0H519L531 72H157L201 322H559L572 394H214L254 622H629L641 694H194Z" />
<glyph unicode="&#xca;" glyph-name="Ecircumflex" horiz-adv-x="573" d="M429 874L274 749H303L440 817L544 749H574L464 874H429ZM194 694L72 0H519L531 72H157L201 322H559L572 394H214L254 622H629L641 694H194Z" />
<glyph unicode="&#xcb;" glyph-name="Edieresis" horiz-adv-x="573" d="M377 818H304L292 746H364L377 818ZM559 818H487L474 746H547L559 818ZM194 694L72 0H519L531 72H157L201 322H559L572 394H214L254 622H629L641 694H194Z" />
<glyph unicode="&#xcc;" glyph-name="Igrave" horiz-adv-x="227" d="M232 730L258 750L151 857L112 819L232 730ZM79 0H151L273 694H201L79 0Z" />
<glyph unicode="&#xcd;" glyph-name="Iacute" horiz-adv-x="227" d="M371 823L332 861L226 754L251 734L371 823ZM79 0H151L273 694H201L79 0Z" />
<glyph unicode="&#xce;" glyph-name="Icircumflex" horiz-adv-x="227" d="M244 874L103 749H132L256 817L360 749H390L280 874H244ZM79 0H151L273 694H201L79 0Z" />
<glyph unicode="&#xcf;" glyph-name="Idieresis" horiz-adv-x="227" d="M200 818H128L116 746H188L200 818ZM382 818H310L298 746H370L382 818ZM79 0H151L273 694H201L79 0Z" />
<glyph unicode="&#xd1;" glyph-name="Ntilde" horiz-adv-x="738" d="M344 734H396Q401 753 411 765T444 778Q464 778 472 773T490 757Q498 749 514 741T560 732Q607 732 633 757T667 824H615Q611 809 600 794T563 778Q543 778 533 784T513 800Q503 808 490 816T449
824Q406 824 380 798T344 734ZM193 694L71 0H143L256 639L569 0H673L796 694H723L613 72L312 694H193Z" />
<glyph unicode="&#xd2;" glyph-name="Ograve" horiz-adv-x="698" d="M478 730L503 750L397 857L358 819L478 730ZM401 626H514Q586 626 620 597T654 504Q654 484 649 427T624 277Q610 213 594 173T553 111T496 80T415 72H312Q273 72 246 78T203 100T179 139T172
200Q172 213 173 232T177 278T185 343T200 432Q210 489 225 526T263 586T319 617T401 626ZM304 0H402Q471 0 520 12T603 55T660 140T697 277Q714 377 719 432T725 510Q725 554 714 589T678 648T613 685T516 698H414Q344 698 296 684T214 638T161 555T128 432Q111
336 107 279T103 194Q103 91 150 46T304 0Z" />
<glyph unicode="&#xd3;" glyph-name="Oacute" horiz-adv-x="698" d="M586 823L547 861L440 754L466 734L586 823ZM401 626H514Q586 626 620 597T654 504Q654 484 649 427T624 277Q610 213 594 173T553 111T496 80T415 72H312Q273 72 246 78T203 100T179 139T172
200Q172 213 173 232T177 278T185 343T200 432Q210 489 225 526T263 586T319 617T401 626ZM304 0H402Q471 0 520 12T603 55T660 140T697 277Q714 377 719 432T725 510Q725 554 714 589T678 648T613 685T516 698H414Q344 698 296 684T214 638T161 555T128 432Q111
336 107 279T103 194Q103 91 150 46T304 0Z" />
<glyph unicode="&#xd4;" glyph-name="Ocircumflex" horiz-adv-x="698" d="M478 858L323 732H352L489 800L593 732H623L513 858H478ZM401 626H514Q586 626 620 597T654 504Q654 484 649 427T624 277Q610 213 594 173T553 111T496 80T415 72H312Q273 72 246 78T203
100T179 139T172 200Q172 213 173 232T177 278T185 343T200 432Q210 489 225 526T263 586T319 617T401 626ZM304 0H402Q471 0 520 12T603 55T660 140T697 277Q714 377 719 432T725 510Q725 554 714 589T678 648T613 685T516 698H414Q344 698 296 684T214 638T161
555T128 432Q111 336 107 279T103 194Q103 91 150 46T304 0Z" />
<glyph unicode="&#xd5;" glyph-name="Otilde" horiz-adv-x="698" d="M310 734H362Q367 753 377 765T410 778Q430 778 438 773T456 757Q464 749 480 741T526 732Q573 732 599 757T633 824H581Q577 809 566 794T529 778Q509 778 499 784T479 800Q469 808 456 816T415
824Q372 824 346 798T310 734ZM401 626H514Q586 626 620 597T654 504Q654 484 649 427T624 277Q610 213 594 173T553 111T496 80T415 72H312Q273 72 246 78T203 100T179 139T172 200Q172 213 173 232T177 278T185 343T200 432Q210 489 225 526T263 586T319 617T401
626ZM304 0H402Q471 0 520 12T603 55T660 140T697 277Q714 377 719 432T725 510Q725 554 714 589T678 648T613 685T516 698H414Q344 698 296 684T214 638T161 555T128 432Q111 336 107 279T103 194Q103 91 150 46T304 0Z" />
<glyph unicode="&#xd6;" glyph-name="Odieresis" horiz-adv-x="698" d="M426 818H353L341 746H413L426 818ZM608 818H536L523 746H596L608 818ZM401 626H514Q586 626 620 597T654 504Q654 484 649 427T624 277Q610 213 594 173T553 111T496 80T415 72H312Q273
72 246 78T203 100T179 139T172 200Q172 213 173 232T177 278T185 343T200 432Q210 489 225 526T263 586T319 617T401 626ZM304 0H402Q471 0 520 12T603 55T660 140T697 277Q714 377 719 432T725 510Q725 554 714 589T678 648T613 685T516 698H414Q344 698 296
684T214 638T161 555T128 432Q111 336 107 279T103 194Q103 91 150 46T304 0Z" />
<glyph unicode="&#xd8;" glyph-name="Oslash" horiz-adv-x="698" d="M163 -80L221 9Q257 0 304 0H402Q471 0 520 12T603 55T660 140T697 277Q714 377 719 432T725 510Q725 564 708 604T653 667L721 772H638L586 692Q554 698 516 698H414Q344 698 296 684T214 638T161
555T128 432Q111 336 107 279T103 194Q103 84 158 39L80 -80H163ZM542 625L200 103Q172 131 172 200Q172 213 173 232T177 278T185 343T200 432Q210 489 225 526T263 586T319 617T401 626H514Q522 626 528 626Q535 626 542 625ZM312 72Q286 72 265 75L611 603Q654
573 654 504Q654 484 649 427T624 277Q610 213 594 173T553 111T496 80T415 72H312Z" />
<glyph unicode="&#xd9;" glyph-name="Ugrave" horiz-adv-x="658" d="M462 730L488 750L381 857L342 819L462 730ZM257 694H185L104 233Q100 210 99 191T98 163Q98 88 144 44T288 0H388Q450 0 493 11T565 47T612 112T640 213L724 694H652L567 210Q560 172 549 145T519
102T471 78T400 70H286Q226 70 198 95T170 165Q170 175 171 193T176 235L257 694Z" />
<glyph unicode="&#xda;" glyph-name="Uacute" horiz-adv-x="658" d="M586 823L547 861L440 754L466 734L586 823ZM257 694H185L104 233Q100 210 99 191T98 163Q98 88 144 44T288 0H388Q450 0 493 11T565 47T612 112T640 213L724 694H652L567 210Q560 172 549 145T519
102T471 78T400 70H286Q226 70 198 95T170 165Q170 175 171 193T176 235L257 694Z" />
<glyph unicode="&#xdb;" glyph-name="Ucircumflex" horiz-adv-x="658" d="M467 866L312 740H341L478 808L582 740H612L502 866H467ZM257 694H185L104 233Q100 210 99 191T98 163Q98 88 144 44T288 0H388Q450 0 493 11T565 47T612 112T640 213L724 694H652L567
210Q560 172 549 145T519 102T471 78T400 70H286Q226 70 198 95T170 165Q170 175 171 193T176 235L257 694Z" />
<glyph unicode="&#xdc;" glyph-name="Udieresis" horiz-adv-x="658" d="M414 818H342L330 746H402L414 818ZM597 818H524L512 746H584L597 818ZM257 694H185L104 233Q100 210 99 191T98 163Q98 88 144 44T288 0H388Q450 0 493 11T565 47T612 112T640 213L724 694H652L567
210Q560 172 549 145T519 102T471 78T400 70H286Q226 70 198 95T170 165Q170 175 171 193T176 235L257 694Z" />
<glyph unicode="&#xdf;" glyph-name="germandbls" horiz-adv-x="622" d="M66 0H138L229 516Q240 576 269 602T360 629H432Q480 629 501 609T522 540Q522 477 487 448T364 419L353 359Q400 359 439 356T506 343T549 311T565 252Q565 164 525 116T388 68H270L258
0H382Q461 0 510 20T586 77T622 160T632 262Q632 330 599 364T510 403Q560 415 577 453T595 548Q595 617 557 656T438 696H351Q269 696 221 651T159 528L153 494H114L105 440H144L66 0Z" />
<glyph unicode="&#xe0;" glyph-name="agrave" horiz-adv-x="536" d="M371 562L402 588L269 721L221 674L371 562ZM253 302Q172 302 129 267T76 178Q71 152 71 136T70 112Q70 60 103 30T205 0H280Q315 0 338 4T377 15T399 28T411 42L404 0H475L536 340Q538 354
538 365Q538 376 538 383Q538 405 530 425T505 460T462 485T400 494H283Q211 494 172 463T122 374L121 366H193L194 374Q200 406 222 420T290 434H380Q425 434 446 419T467 372Q467 367 467 359Q467 352 464 335L449 260Q442 269 434 276T413 290T380 299T330 302H253ZM137
125Q137 161 146 183T170 218T205 236T249 241H331Q388 241 410 225T432 177Q432 128 404 95T308 61H231Q180 61 159 76T137 125Z" />
<glyph unicode="&#xe1;" glyph-name="aacute" horiz-adv-x="536" d="M538 672L497 719L319 583L341 558L538 672ZM253 302Q172 302 129 267T76 178Q71 152 71 136T70 112Q70 60 103 30T205 0H280Q315 0 338 4T377 15T399 28T411 42L404 0H475L536 340Q538 354
538 365Q538 376 538 383Q538 405 530 425T505 460T462 485T400 494H283Q211 494 172 463T122 374L121 366H193L194 374Q200 406 222 420T290 434H380Q425 434 446 419T467 372Q467 367 467 359Q467 352 464 335L449 260Q442 269 434 276T413 290T380 299T330 302H253ZM137
125Q137 161 146 183T170 218T205 236T249 241H331Q388 241 410 225T432 177Q432 128 404 95T308 61H231Q180 61 159 76T137 125Z" />
<glyph unicode="&#xe2;" glyph-name="acircumflex" horiz-adv-x="536" d="M353 694L182 554H214L371 630L482 554H516L393 694H353ZM253 302Q172 302 129 267T76 178Q71 152 71 136T70 112Q70 60 103 30T205 0H280Q315 0 338 4T377 15T399 28T411 42L404 0H475L536
340Q538 354 538 365Q538 376 538 383Q538 405 530 425T505 460T462 485T400 494H283Q211 494 172 463T122 374L121 366H193L194 374Q200 406 222 420T290 434H380Q425 434 446 419T467 372Q467 367 467 359Q467 352 464 335L449 260Q442 269 434 276T413 290T380
299T330 302H253ZM137 125Q137 161 146 183T170 218T205 236T249 241H331Q388 241 410 225T432 177Q432 128 404 95T308 61H231Q180 61 159 76T137 125Z" />
<glyph unicode="&#xe3;" glyph-name="atilde" horiz-adv-x="536" d="M195 564H247Q252 583 262 595T295 608Q315 608 323 603T341 587Q349 579 365 571T411 562Q458 562 484 587T518 654H466Q462 639 451 624T414 608Q394 608 384 614T364 630Q354 638 341 646T300
654Q257 654 231 628T195 564ZM253 302Q172 302 129 267T76 178Q71 152 71 136T70 112Q70 60 103 30T205 0H280Q315 0 338 4T377 15T399 28T411 42L404 0H475L536 340Q538 354 538 365Q538 376 538 383Q538 405 530 425T505 460T462 485T400 494H283Q211 494 172
463T122 374L121 366H193L194 374Q200 406 222 420T290 434H380Q425 434 446 419T467 372Q467 367 467 359Q467 352 464 335L449 260Q442 269 434 276T413 290T380 299T330 302H253ZM137 125Q137 161 146 183T170 218T205 236T249 241H331Q388 241 410 225T432
177Q432 128 404 95T308 61H231Q180 61 159 76T137 125Z" />
<glyph unicode="&#xe4;" glyph-name="adieresis" horiz-adv-x="536" d="M319 694H247L234 622H307L319 694ZM501 694H429L417 622H489L501 694ZM253 302Q172 302 129 267T76 178Q71 152 71 136T70 112Q70 60 103 30T205 0H280Q315 0 338 4T377 15T399 28T411 42L404
0H475L536 340Q538 354 538 365Q538 376 538 383Q538 405 530 425T505 460T462 485T400 494H283Q211 494 172 463T122 374L121 366H193L194 374Q200 406 222 420T290 434H380Q425 434 446 419T467 372Q467 367 467 359Q467 352 464 335L449 260Q442 269 434 276T413
290T380 299T330 302H253ZM137 125Q137 161 146 183T170 218T205 236T249 241H331Q388 241 410 225T432 177Q432 128 404 95T308 61H231Q180 61 159 76T137 125Z" />
<glyph unicode="&#xe5;" glyph-name="aring" horiz-adv-x="536" d="M387 703H354Q322 703 306 687T285 646Q283 632 282 619T280 599Q280 579 293 567T335 554H361Q397 554 414 568T436 611Q438 624 439 638T441 658Q441 676 429 689T387 703ZM365 576H339Q302
576 302 605Q302 610 303 621T307 643Q311 665 324 673T354 681H384Q419 681 419 654Q419 649 418 637T414 612Q411 593 398 585T365 576ZM253 302Q172 302 129 267T76 178Q71 152 71 136T70 112Q70 60 103 30T205 0H280Q315 0 338 4T377 15T399 28T411 42L404
0H475L536 340Q538 354 538 365Q538 376 538 383Q538 405 530 425T505 460T462 485T400 494H283Q211 494 172 463T122 374L121 366H193L194 374Q200 406 222 420T290 434H380Q425 434 446 419T467 372Q467 367 467 359Q467 352 464 335L449 260Q442 269 434 276T413
290T380 299T330 302H253ZM137 125Q137 161 146 183T170 218T205 236T249 241H331Q388 241 410 225T432 177Q432 128 404 95T308 61H231Q180 61 159 76T137 125Z" />
<glyph unicode="&#xe6;" glyph-name="ae" horiz-adv-x="884" d="M475 0L481 33Q518 -1 591 -1H655Q703 -1 739 6T801 29T843 71T866 136L870 157H803L800 142Q793 101 764 81T668 60H604Q553 60 530 78T507 139Q507 157 510 180T518 232H883Q893 287 897 318T901
367Q901 428 862 462T742 496H678Q622 496 584 484T521 442Q506 465 476 479T400 494H283Q211 494 172 463T122 374L121 366H193L194 374Q200 406 222 420T290 434H380Q425 434 446 419T467 372Q467 367 466 354T462 325L449 260Q442 269 434 276T413 290T380 299T330
302H253Q172 302 129 267T76 178Q71 152 71 136T70 112Q70 60 103 30T205 0H280Q315 0 338 4T377 15T399 28T411 42L404 0H475ZM137 125Q137 161 146 183T170 218T205 236T249 241H331Q388 241 410 225T432 177Q432 128 404 95T308 61H231Q180 61 159 76T137 125ZM835
362Q835 336 827 293H529Q536 334 545 361T569 404T605 427T659 434H734Q792 434 813 417T835 362Z" />
<glyph unicode="&#xe7;" glyph-name="ccedilla" horiz-adv-x="547" d="M92 144Q92 78 129 39T244 -1L235 -55Q231 -75 213 -81T157 -87L146 -148Q182 -148 209 -146T255 -135T286 -109T303 -60L314 -1Q368 -1 404 9T462 39T496 87T515 149L524 191H457L452 164Q446
134 437 114T412 82T372 65T309 60H253Q209 60 183 78T156 145Q156 160 157 174T160 208T167 251T178 310Q185 345 193 369T216 407T252 428T304 434H385Q442 434 463 418T485 369Q485 359 484 348T480 321H547Q550 338 551 352T552 376Q552 438 509 467T387 496H315Q266
496 232 486T174 453T136 393T111 302Q105 267 102 244T96 203T93 172T92 144Z" />
<glyph unicode="&#xe8;" glyph-name="egrave" horiz-adv-x="547" d="M370 562L401 588L268 721L220 674L370 562ZM238 -1H302Q350 -1 386 6T448 29T490 71T513 136L517 157H450L447 142Q440 101 411 81T315 60H251Q200 60 177 78T154 139Q154 157 157 180T165
232H530Q540 287 544 318T548 367Q548 428 509 462T389 496H325Q274 496 238 486T177 453T137 394T112 306Q101 243 96 200T91 131Q91 67 128 33T238 -1ZM482 362Q482 336 474 293H176Q183 334 192 361T215 404T250 427T306 434H381Q439 434 460 417T482 362Z"
/>
<glyph unicode="&#xe9;" glyph-name="eacute" horiz-adv-x="547" d="M536 672L494 719L317 583L339 558L536 672ZM238 -1H302Q350 -1 386 6T448 29T490 71T513 136L517 157H450L447 142Q440 101 411 81T315 60H251Q200 60 177 78T154 139Q154 157 157 180T165
232H530Q540 287 544 318T548 367Q548 428 509 462T389 496H325Q274 496 238 486T177 453T137 394T112 306Q101 243 96 200T91 131Q91 67 128 33T238 -1ZM482 362Q482 336 474 293H176Q183 334 192 361T215 404T250 427T306 434H381Q439 434 460 417T482 362Z"
/>
<glyph unicode="&#xea;" glyph-name="ecircumflex" horiz-adv-x="547" d="M371 694L200 554H232L389 630L500 554H533L411 694H371ZM238 -1H302Q350 -1 386 6T448 29T490 71T513 136L517 157H450L447 142Q440 101 411 81T315 60H251Q200 60 177 78T154 139Q154
157 157 180T165 232H530Q540 287 544 318T548 367Q548 428 509 462T389 496H325Q274 496 238 486T177 453T137 394T112 306Q101 243 96 200T91 131Q91 67 128 33T238 -1ZM482 362Q482 336 474 293H176Q183 334 192 361T215 404T250 427T306 434H381Q439 434 460
417T482 362Z" />
<glyph unicode="&#xeb;" glyph-name="edieresis" horiz-adv-x="547" d="M327 694H254L242 622H314L327 694ZM509 694H437L424 622H497L509 694ZM238 -1H302Q350 -1 386 6T448 29T490 71T513 136L517 157H450L447 142Q440 101 411 81T315 60H251Q200 60 177 78T154
139Q154 157 157 180T165 232H530Q540 287 544 318T548 367Q548 428 509 462T389 496H325Q274 496 238 486T177 453T137 394T112 306Q101 243 96 200T91 131Q91 67 128 33T238 -1ZM482 362Q482 336 474 293H176Q183 334 192 361T215 404T250 427T306 434H381Q439
434 460 417T482 362Z" />
<glyph unicode="&#xec;" glyph-name="igrave" horiz-adv-x="218" d="M196 562L227 588L93 721L46 674L196 562ZM234 494H162L76 0H148L234 494Z" />
<glyph unicode="&#xed;" glyph-name="iacute" horiz-adv-x="218" d="M390 672L349 719L171 583L193 558L390 672ZM234 494H162L76 0H148L234 494Z" />
<glyph unicode="&#xee;" glyph-name="icircumflex" horiz-adv-x="218" d="M199 694L28 554H60L217 630L328 554H361L239 694H199ZM234 494H162L76 0H148L234 494Z" />
<glyph unicode="&#xef;" glyph-name="idieresis" horiz-adv-x="218" d="M171 694H99L87 622H159L171 694ZM353 694H281L269 622H341L353 694ZM234 494H162L76 0H148L234 494Z" />
<glyph unicode="&#xf1;" glyph-name="ntilde" horiz-adv-x="582" d="M220 564H272Q277 583 287 595T320 608Q340 608 348 603T366 587Q374 579 390 571T436 562Q483 562 509 587T543 654H491Q487 639 476 624T439 608Q419 608 409 614T389 630Q379 638 366 646T325
654Q282 654 256 628T220 564ZM406 494H369Q298 494 263 478T212 440L222 493H150L61 0H133L186 303Q199 373 240 404T357 436H396Q460 436 487 415T514 351Q514 342 514 331T510 302L457 0H529L583 303Q586 320 586 335T587 361Q587 390 577 414T544 456T488 484T406
494Z" />
<glyph unicode="&#xf2;" glyph-name="ograve" horiz-adv-x="516" d="M338 562L369 588L236 721L188 674L338 562ZM378 496H303Q250 496 215 485T156 451T120 392T97 309Q86 245 82 199T78 127Q78 102 85 79T110 38T156 10T227 -1H304Q353 -1 388 10T446 44T484
100T506 176Q519 248 523 294T528 362Q528 496 378 496ZM300 61H240Q186 61 164 82T141 145Q141 160 142 176T146 211T153 256T164 316Q170 349 179 371T205 408T246 428T306 434H366Q420 434 442 414T465 355Q465 323 442 193Q435 154 425 129T398 88T357 67T300
61Z" />
<glyph unicode="&#xf3;" glyph-name="oacute" horiz-adv-x="516" d="M536 672L494 719L317 583L339 558L536 672ZM378 496H303Q250 496 215 485T156 451T120 392T97 309Q86 245 82 199T78 127Q78 102 85 79T110 38T156 10T227 -1H304Q353 -1 388 10T446 44T484
100T506 176Q519 248 523 294T528 362Q528 496 378 496ZM300 61H240Q186 61 164 82T141 145Q141 160 142 176T146 211T153 256T164 316Q170 349 179 371T205 408T246 428T306 434H366Q420 434 442 414T465 355Q465 323 442 193Q435 154 425 129T398 88T357 67T300
61Z" />
<glyph unicode="&#xf4;" glyph-name="ocircumflex" horiz-adv-x="516" d="M349 694L178 554H210L361 630L478 554H511L389 694H349ZM378 496H303Q250 496 215 485T156 451T120 392T97 309Q86 245 82 199T78 127Q78 102 85 79T110 38T156 10T227 -1H304Q353 -1
388 10T446 44T484 100T506 176Q519 248 523 294T528 362Q528 496 378 496ZM300 61H240Q186 61 164 82T141 145Q141 160 142 176T146 211T153 256T164 316Q170 349 179 371T205 408T246 428T306 434H366Q420 434 442 414T465 355Q465 323 442 193Q435 154 425 129T398
88T357 67T300 61Z" />
<glyph unicode="&#xf5;" glyph-name="otilde" horiz-adv-x="516" d="M176 564H228Q233 583 243 595T276 608Q296 608 304 603T322 587Q330 579 346 571T392 562Q439 562 465 587T499 654H447Q443 639 432 624T395 608Q375 608 365 614T345 630Q335 638 322 646T281
654Q238 654 212 628T176 564ZM378 496H303Q250 496 215 485T156 451T120 392T97 309Q86 245 82 199T78 127Q78 102 85 79T110 38T156 10T227 -1H304Q353 -1 388 10T446 44T484 100T506 176Q519 248 523 294T528 362Q528 496 378 496ZM300 61H240Q186 61 164 82T141
145Q141 160 142 176T146 211T153 256T164 316Q170 349 179 371T205 408T246 428T306 434H366Q420 434 442 414T465 355Q465 323 442 193Q435 154 425 129T398 88T357 67T300 61Z" />
<glyph unicode="&#xf6;" glyph-name="odieresis" horiz-adv-x="516" d="M312 694H240L228 622H300L312 694ZM494 694H422L410 622H482L494 694ZM378 496H303Q250 496 215 485T156 451T120 392T97 309Q86 245 82 199T78 127Q78 102 85 79T110 38T156 10T227 -1H304Q353
-1 388 10T446 44T484 100T506 176Q519 248 523 294T528 362Q528 496 378 496ZM300 61H240Q186 61 164 82T141 145Q141 160 142 176T146 211T153 256T164 316Q170 349 179 371T205 408T246 428T306 434H366Q420 434 442 414T465 355Q465 323 442 193Q435 154 425
129T398 88T357 67T300 61Z" />
<glyph unicode="&#xf7;" glyph-name="divide" horiz-adv-x="433" d="M434 327H116L102 254H421L434 327ZM214 167L201 89H279L292 167H214ZM262 491L249 413H327L340 491H262Z" />
<glyph unicode="&#xf8;" glyph-name="oslash" horiz-adv-x="516" d="M138 -45L170 5Q194 -1 227 -1H304Q353 -1 388 10T446 44T483 100T505 176Q512 216 517 246T525 299T530 336T532 362Q532 442 475 474L518 540H459L427 492Q416 494 404 495T378 496H314Q257
496 220 485T158 451T120 392T97 309Q86 245 81 199T76 127Q76 97 87 70T125 25L79 -45H138ZM389 433L161 81Q141 100 141 139Q141 150 146 194T165 316Q171 349 180 371T206 408T246 428T306 434H366Q372 434 378 434Q384 434 389 433ZM240 61Q231 61 224 61T208
63L438 418Q466 399 466 356Q466 340 460 299T442 193Q435 154 425 129T398 88T357 67T300 61H240Z" />
<glyph unicode="&#xf9;" glyph-name="ugrave" horiz-adv-x="591" d="M382 562L413 588L280 721L232 674L382 562ZM268 -1H313Q347 -1 371 3T413 14T442 30T463 49L454 0H524L611 494H539L485 188Q474 126 433 96T322 66H279Q220 66 195 85T169 148Q169 157 170
167T174 194L227 494H155L104 204Q102 191 100 175T98 145Q98 77 139 38T268 -1Z" />
<glyph unicode="&#xfa;" glyph-name="uacute" horiz-adv-x="591" d="M580 672L539 719L361 583L383 558L580 672ZM268 -1H313Q347 -1 371 3T413 14T442 30T463 49L454 0H524L611 494H539L485 188Q474 126 433 96T322 66H279Q220 66 195 85T169 148Q169 157 170
167T174 194L227 494H155L104 204Q102 191 100 175T98 145Q98 77 139 38T268 -1Z" />
<glyph unicode="&#xfb;" glyph-name="ucircumflex" horiz-adv-x="591" d="M382 694L211 554H243L394 630L511 554H544L422 694H382ZM268 -1H313Q347 -1 371 3T413 14T442 30T463 49L454 0H524L611 494H539L485 188Q474 126 433 96T322 66H279Q220 66 195 85T169
148Q169 157 170 167T174 194L227 494H155L104 204Q102 191 100 175T98 145Q98 77 139 38T268 -1Z" />
<glyph unicode="&#xfc;" glyph-name="udieresis" horiz-adv-x="591" d="M347 694H274L262 622H334L347 694ZM529 694H457L444 622H517L529 694ZM268 -1H313Q347 -1 371 3T413 14T442 30T463 49L454 0H524L611 494H539L485 188Q474 126 433 96T322 66H279Q220 66
195 85T169 148Q169 157 170 167T174 194L227 494H155L104 204Q102 191 100 175T98 145Q98 77 139 38T268 -1Z" />
<glyph unicode="&#xff;" glyph-name="ydieresis" horiz-adv-x="490" d="M292 694H220L208 622H280L292 694ZM474 694H402L390 622H462L474 694ZM184 494H108L206 -1H212Q198 -27 175 -53T121 -101T55 -135T-15 -149L-26 -211Q69 -211 147 -163T290 2L559 494H485L263
93L184 494Z" />
<glyph unicode="&#x152;" glyph-name="OE" horiz-adv-x="1071" d="M402 0Q456 0 497 7T570 31L564 0H1017L1029 72H654L699 322H1057L1070 394H712L752 622H1127L1139 694H687L677 649Q626 698 516 698H414Q344 698 296 684T214 638T161 555T128 432Q111 336 107
279T103 194Q103 91 150 46T304 0H402ZM401 626H514Q586 626 620 597T654 504Q654 484 649 427T624 277Q610 213 594 173T553 111T496 80T415 72H312Q273 72 246 78T203 100T179 139T172 200Q172 213 173 232T177 278T185 343T200 432Q210 489 225 526T263 586T319
617T401 626Z" />
<glyph unicode="&#x153;" glyph-name="oe" horiz-adv-x="907" d="M679 496Q619 496 580 482T515 434Q480 496 378 496H314Q257 496 220 485T158 451T120 392T97 309Q86 245 81 199T76 127Q76 102 84 79T109 38T156 10T227 -1H304Q362 -1 399 14T460 61Q494 -1
592 -1H656Q704 -1 740 6T802 29T844 71T867 136L871 157H804L801 142Q794 101 765 81T669 60H605Q554 60 531 78T508 139Q508 157 511 180T519 232H884Q894 287 898 318T902 367Q902 428 863 462T743 496H679ZM300 61H240Q186 61 164 79T141 139Q141 150 146 194T165
316Q171 349 180 371T206 408T246 428T306 434H366Q420 434 443 415T466 356Q466 340 460 299T442 193Q435 154 425 129T398 88T357 67T300 61ZM836 362Q836 336 828 293H530Q537 334 546 361T570 404T606 427T660 434H735Q793 434 814 417T836 362Z" />
<glyph unicode="&#x178;" glyph-name="Ydieresis" horiz-adv-x="564" d="M362 818H290L278 746H350L362 818ZM544 818H472L460 746H532L544 818ZM216 694H140L302 323L246 0H323L380 323L673 694H594L350 386L216 694Z" />
<glyph unicode="&#x192;" glyph-name="florin" horiz-adv-x="649" d="M686 533H152L58 0H591L686 533Z" />
<glyph unicode="&#x2c6;" glyph-name="circumflex" horiz-adv-x="413" d="M216 694L44 554H77L233 630L344 554H378L256 694H216Z" />
<glyph unicode="&#x2dc;" glyph-name="tilde" horiz-adv-x="387" d="M40 564H92Q97 583 107 595T140 608Q160 608 168 603T186 587Q194 579 210 571T256 562Q303 562 329 587T363 654H311Q307 639 296 624T259 608Q239 608 229 614T209 630Q199 638 186 646T145
654Q102 654 76 628T40 564Z" />
<glyph unicode="&#x2013;" glyph-name="endash" horiz-adv-x="572" d="M569 327H111L98 254H556L569 327Z" />
<glyph unicode="&#x2014;" glyph-name="emdash" horiz-adv-x="944" d="M913 327H150L137 254H900L913 327Z" />
<glyph unicode="&#x2018;" glyph-name="quoteleft" horiz-adv-x="183" d="M215 546L228 623H187L194 664Q199 689 208 703T230 729H193Q182 721 173 706T158 667L137 546H215Z" />
<glyph unicode="&#x2019;" glyph-name="quoteright" horiz-adv-x="183" d="M178 704L165 627H206L199 586Q194 561 182 545T158 521H200Q211 529 221 544T235 584L256 704H178Z" />
<glyph unicode="&#x201a;" glyph-name="quotesinglbase" horiz-adv-x="183" d="M101 152L88 75H129L122 34Q117 9 105 -7T81 -31H123Q134 -23 144 -8T158 32L179 152H101Z" />
<glyph unicode="&#x201c;" glyph-name="quotedblleft" horiz-adv-x="309" d="M199 546L212 623H171L178 664Q183 689 192 703T214 729H177Q166 721 157 706T142 667L121 546H199ZM320 546L333 623H292L299 664Q304 689 316 705T340 729H298Q287 721 277 706T263
666L242 546H320Z" />
<glyph unicode="&#x201d;" glyph-name="quotedblright" horiz-adv-x="302" d="M304 704L291 627H332L325 586Q320 561 311 547T289 521H326Q337 529 346 544T361 583L382 704H304ZM183 704L170 627H211L204 586Q199 561 187 545T163 521H205Q216 529 226 544T240
584L261 704H183Z" />
<glyph unicode="&#x201e;" glyph-name="quotedblbase" horiz-adv-x="316" d="M222 152L209 75H250L243 34Q238 9 229 -5T207 -31H244Q255 -23 264 -8T279 31L300 152H222ZM101 152L88 75H129L122 34Q117 9 105 -7T81 -31H123Q134 -23 144 -8T158 32L179 152H101Z" />
<glyph unicode="&#x2020;" glyph-name="dagger" horiz-adv-x="244" d="M263 736H237L213 606H146L141 579H209L132 157H159L236 579H303L308 606H240L263 736Z" />
<glyph unicode="&#x2021;" glyph-name="daggerdbl" horiz-adv-x="244" d="M139 183H166L213 454H281L286 481H218L237 597H304L310 624H242L263 736H237L216 624H148L142 597H210L191 481H123L119 454H187L139 183Z" />
<glyph unicode="&#x2022;" glyph-name="bullet" horiz-adv-x="467" d="M454 291Q454 320 445 347T416 395T367 429T297 442Q253 442 221 427T166 388T132 332T121 270Q121 241 130 214T159 166T208 132T278 119Q321 119 354 134T409 173T443 228T454 291Z" />
<glyph unicode="&#x2026;" glyph-name="ellipsis" horiz-adv-x="797" d="M92 78L79 0H157L170 78H92ZM358 78L345 0H423L436 78H358ZM622 78L609 0H687L700 78H622Z" />
<glyph unicode="&#x2030;" glyph-name="perthousand" horiz-adv-x="1409" d="M313 -33L861 728H811L263 -33H313ZM472 564Q472 553 468 526T454 445Q448 409 439 386T414 351T375 333T319 328H291Q236 328 215 342T193 397Q193 414 197 448T210 528Q216 559 224
579T245 611T279 627T332 632H366Q425 632 448 618T472 564ZM315 267Q360 267 393 275T450 302T489 352T512 431Q515 449 518 470T524 511T528 547T530 573Q530 627 494 660T379 693H345Q297 693 264 685T208 656T171 600T147 509Q139 465 137 435T135 381Q135
332 168 300T276 267H315ZM930 298Q930 287 926 260T912 179Q906 143 897 120T872 85T833 67T777 62H749Q694 62 673 76T651 131Q651 148 655 182T668 262Q674 293 682 313T703 345T737 361T790 366H824Q883 366 906 352T930 298ZM773 1Q818 1 851 9T908 36T947
86T970 165Q973 183 976 204T982 245T986 281T988 307Q988 361 952 394T837 427H803Q755 427 722 419T666 390T629 334T605 243Q597 199 595 169T593 115Q593 66 626 34T734 1H773ZM1353 298Q1353 287 1349 260T1335 179Q1329 143 1320 120T1295 85T1256 67T1200
62H1172Q1117 62 1096 76T1074 131Q1074 148 1078 182T1091 262Q1097 293 1105 313T1126 345T1160 361T1213 366H1247Q1306 366 1329 352T1353 298ZM1196 1Q1241 1 1274 9T1331 36T1370 86T1393 165Q1396 183 1399 204T1405 245T1409 281T1411 307Q1411 361 1375
394T1260 427H1226Q1178 427 1145 419T1089 390T1052 334T1028 243Q1020 199 1018 169T1016 115Q1016 66 1049 34T1157 1H1196Z" />
<glyph unicode="&#x2039;" glyph-name="guilsinglleft" horiz-adv-x="351" d="M252 78L289 113L153 272L359 447L324 483L82 278L252 78Z" />
<glyph unicode="&#x203a;" glyph-name="guilsinglright" horiz-adv-x="347" d="M156 451L293 284L91 117L123 78L364 278L196 483L156 451Z" />
<glyph unicode="&#x2122;" glyph-name="trademark" horiz-adv-x="400" d="M310 769H186L183 756H239L210 594H223L252 756H308L310 769ZM343 771L274 596H288L338 727L367 587L444 727L449 596H462L456 771L373 623L343 771Z" />
</font>
</defs>
</svg>
